<?xml version="1.0" encoding="utf-8"?>
<!-- Generator: Adobe Illustrator 24.2.0, SVG Export Plug-In . SVG Version: 6.00 Build 0)  -->
<svg version="1.1" id="Layer_1" xmlns="http://www.w3.org/2000/svg" xmlns:xlink="http://www.w3.org/1999/xlink" x="0px" y="0px"
	 viewBox="0 0 285 650" style="enable-background:new 0 0 285 650;" xml:space="preserve">
<style type="text/css">
	.st0{fill:#191919;}
	.st1{fill:#727272;}
</style>
<path class="st0" d="M225.3,551.5H59c-5.4,0-9.9-4.4-9.9-9.9v0c0-5.4,4.4-9.9,9.9-9.9h166.3c5.4,0,9.9,4.4,9.9,9.9v0
	C235.2,547.1,230.8,551.5,225.3,551.5z"/>
<path class="st0" d="M226.3,596.8H60c-5.4,0-9.9-4.4-9.9-9.9v0c0-5.4,4.4-9.9,9.9-9.9h166.3c5.4,0,9.9,4.4,9.9,9.9v0
	C236.2,592.4,231.8,596.8,226.3,596.8z"/>
<ellipse class="st1" cx="199.7" cy="541.3" rx="12.5" ry="16.5"/>
<ellipse class="st1" cx="89.7" cy="587.3" rx="12.5" ry="16.5"/>
</svg>
